<svg width="84" height="85" viewBox="0 0 84 85" fill="none" xmlns="http://www.w3.org/2000/svg">
<path d="M40.6761 5.20834L41.6705 5.24079C41.7028 5.43541 41.7773 5.61205 41.8938 5.7707C42.1478 6.12188 42.5455 6.3063 43.0869 6.32397C43.5233 6.33821 43.849 6.27141 44.064 6.12357C44.2792 5.97021 44.3911 5.76094 44.3997 5.49576C44.4066 5.28583 44.3154 5.11417 44.1262 4.9808C43.9425 4.84761 43.6754 4.72828 43.3249 4.62282C42.6401 4.4235 42.1808 4.26196 41.947 4.13819C41.2995 3.81289 40.9858 3.34362 41.0058 2.73039C41.0211 2.2608 41.2332 1.86124 41.6422 1.5317C42.0513 1.19663 42.5763 1.03955 43.2172 1.06046C44.0679 1.08822 44.6912 1.39338 45.087 1.97593C45.2558 2.22478 45.3737 2.51068 45.4406 2.83363L44.4462 2.80118C44.4126 2.64523 44.348 2.50486 44.2525 2.38008C44.0295 2.09628 43.6749 1.94645 43.1888 1.93058C42.8131 1.91832 42.5233 1.98629 42.3194 2.13449C42.1154 2.28269 42.0095 2.47833 42.0016 2.72141C41.9897 3.08603 42.3478 3.37977 43.0761 3.60263C43.1364 3.62119 43.2513 3.65812 43.4209 3.71343C43.5907 3.76322 43.7111 3.80309 43.782 3.83306C43.8587 3.85768 43.9734 3.90014 44.1263 3.96043C44.2849 4.01538 44.4021 4.06622 44.478 4.11294C44.5539 4.15966 44.6515 4.22091 44.7707 4.2967C44.8901 4.36696 44.9789 4.44175 45.0371 4.52108C45.1011 4.59506 45.1647 4.68009 45.2279 4.77618C45.2966 4.87244 45.3429 4.98179 45.3665 5.10423C45.3903 5.22115 45.4 5.34866 45.3955 5.48678C45.3793 5.98399 45.1583 6.39986 44.7326 6.73439C44.3126 7.06357 43.7546 7.2168 43.0585 7.19409C42.1303 7.1638 41.4584 6.82387 41.0427 6.1743C40.8527 5.89711 40.7304 5.57512 40.6761 5.20834Z" fill="#111A45"/>
<path d="M50.5291 7.22187C50.1284 6.49203 50.0577 5.70432 50.3168 4.85874C50.576 4.01316 51.076 3.40039 51.8169 3.02041C52.5577 2.64044 53.3483 2.57922 54.1886 2.83677C55.1504 3.13157 55.7972 3.69981 56.1289 4.54148C56.2776 4.90504 56.3492 5.29408 56.3435 5.70861L55.4319 5.4292C55.4016 5.18865 55.3278 4.9579 55.2105 4.73695C54.9429 4.23291 54.5132 3.89018 53.9213 3.70877C53.3241 3.52573 52.7796 3.56697 52.2877 3.83248C51.7959 4.09798 51.456 4.53726 51.2681 5.1503C51.0802 5.76334 51.1156 6.31762 51.3742 6.81314C51.6328 7.30865 52.0607 7.64792 52.6579 7.83096C53.2656 8.01723 53.8298 7.95891 54.3505 7.65598C54.58 7.52975 54.7795 7.35966 54.9492 7.14571L55.8608 7.42512C55.597 7.79523 55.2948 8.09283 54.9541 8.31794C54.1858 8.86294 53.3313 8.99128 52.3906 8.70296C51.5503 8.44541 50.9298 7.95172 50.5291 7.22187Z" fill="#111A45"/>
<path d="M59.0635 11.2192L62.1572 6.30855L64.2969 7.65651C64.8768 8.02186 65.2432 8.46174 65.396 8.97614C65.5488 9.49054 65.4823 9.97456 65.1966 10.4282C64.9697 10.7883 64.6571 11.0356 64.2588 11.1701C63.8681 11.3029 63.443 11.2932 62.9836 11.1409L63.0622 13.7383L62.1151 13.1417L62.0625 10.6587L60.9752 9.97362L59.8703 11.7274L59.0635 11.2192ZM61.4613 9.20196L62.7942 10.0417C63.4957 10.4836 64.0159 10.4357 64.3547 9.89786C64.6936 9.36003 64.5122 8.87014 63.8107 8.42818L62.4778 7.58847L61.4613 9.20196Z" fill="#111A45"/>
<path d="M67.2329 16.2947C67.2636 15.4628 67.6003 14.7511 68.243 14.1598C68.8857 13.5684 69.6228 13.292 70.4544 13.3305C71.2861 13.369 72.0032 13.7157 72.6058 14.3706C73.2084 15.0255 73.4943 15.7689 73.4636 16.6009C73.4329 17.4328 73.0962 18.1445 72.4535 18.7358C71.8109 19.3272 71.0737 19.6036 70.2421 19.5651C69.4104 19.5266 68.6933 19.1799 68.0907 18.525C67.4882 17.8701 67.2022 17.1267 67.2329 16.2947ZM70.4623 14.2697C69.9037 14.2504 69.3885 14.4578 68.9167 14.8919C68.4448 15.3261 68.1953 15.8223 68.1682 16.3806C68.1411 16.9389 68.339 17.4478 68.7619 17.9075C69.1811 18.363 69.67 18.6005 70.2286 18.6198C70.7909 18.6432 71.308 18.4378 71.7798 18.0037C72.2517 17.5695 72.4993 17.0713 72.5227 16.5089C72.5498 15.9506 72.3538 15.4437 71.9346 14.9881C71.5117 14.5285 71.0209 14.289 70.4623 14.2697Z" fill="#111A45"/>
<path d="M72.5506 24.0874L77.6562 21.3274L78.1097 22.1662L73.8064 24.4925L75.2061 27.0818L74.4038 27.5155L72.5506 24.0874Z" fill="#111A45"/>
<path d="M75.7945 31.008L81.3716 29.4015L81.6355 30.3177L76.9348 31.6718L77.7495 34.5002L76.8731 34.7526L75.7945 31.008Z" fill="#111A45"/>
<path d="M77.7595 43.7531L83.5293 44.3813L83.3184 46.3183C83.2209 47.214 82.8629 47.9228 82.2445 48.4449C81.6261 48.9669 80.9103 49.1837 80.097 49.0952C79.2837 49.0066 78.6313 48.6409 78.1397 47.998C77.6481 47.3551 77.4511 46.5858 77.5486 45.6901L77.7595 43.7531ZM78.563 44.7997L78.4553 45.7888C78.3865 46.4208 78.5152 46.9491 78.8415 47.3738C79.1678 47.7986 79.6222 48.0426 80.2047 48.106C80.7872 48.1695 81.2834 48.0289 81.6935 47.6843C82.1035 47.3397 82.3429 46.8515 82.4117 46.2196L82.5194 45.2305L78.563 44.7997Z" fill="#111A45"/>
<path d="M76.6537 53.9011C77.4177 53.5704 78.205 53.5675 79.0156 53.8927C79.8261 54.2179 80.3932 54.764 80.7168 55.531C81.0404 56.2981 81.0365 57.0946 80.7052 57.9206C80.3739 58.7465 79.8262 59.3249 79.0622 59.6557C78.2982 59.9864 77.5109 59.9893 76.7004 59.6641C75.8898 59.3389 75.3227 58.7928 74.9991 58.0258C74.6755 57.2587 74.6794 56.4622 75.0108 55.6362C75.3421 54.8103 75.8897 54.2319 76.6537 53.9011ZM79.8727 55.9428C79.6494 55.4304 79.2402 55.0549 78.6451 54.8161C78.05 54.5774 77.4948 54.5661 76.9793 54.7821C76.4638 54.9982 76.0898 55.3961 75.8572 55.9758C75.6267 56.5504 75.6231 57.0939 75.8464 57.6063C76.0676 58.1238 76.4757 58.5019 77.0708 58.7407C77.6659 58.9794 78.2222 58.9882 78.7397 58.767C79.2552 58.5509 79.6282 58.1556 79.8587 57.581C80.0913 57.0013 80.0959 56.4552 79.8727 55.9428Z" fill="#111A45"/>
<path d="M76.7749 65.4859L76.1498 66.2599L71.644 63.9211L71.5659 64.0179L74.8213 67.9047L73.9097 69.0335L69.3987 66.7012L69.3206 66.798L72.5813 70.6783L71.9822 71.4201L68.2223 66.8382L69.1861 65.6449L73.5202 67.8663L73.5983 67.7696L70.4885 64.0323L71.4783 62.8068L76.7749 65.4859Z" fill="#111A45"/>
<path d="M64.4603 70.3554L67.7461 75.1397L66.6184 75.9142L61.9287 73.5526L61.8603 73.5996L62.3277 74.1336L64.5338 77.3458L63.7479 77.8856L60.4621 73.1014L61.5898 72.3269L66.2795 74.6885L66.3478 74.6415L65.8805 74.1075L63.6743 70.8952L64.4603 70.3554Z" fill="#111A45"/>
<path d="M51.173 78.8C51.3456 78.9073 51.4558 79.0632 51.5036 79.2677C51.5514 79.4722 51.5216 79.6608 51.4144 79.8335C51.3071 80.0061 51.1512 80.1163 50.9467 80.1641C50.7421 80.2119 50.5536 80.1821 50.3809 80.0749C50.2083 79.9676 50.0981 79.8117 50.0503 79.6071C50.0025 79.4026 50.0323 79.214 50.1395 79.0414C50.2468 78.8687 50.4027 78.7585 50.6072 78.7108C50.8118 78.663 51.0004 78.6927 51.173 78.8Z" fill="#111A45"/>
<path d="M39.7702 79.8788L38.7842 79.7453C38.7718 79.5484 38.7158 79.3651 38.616 79.1954C38.3991 78.8202 38.0223 78.5962 37.4855 78.5235C37.0527 78.4649 36.7219 78.4982 36.493 78.6234C36.2634 78.754 36.1307 78.9508 36.0951 79.2137C36.0669 79.4219 36.1401 79.6019 36.3148 79.7539C36.484 79.9051 36.7375 80.051 37.0755 80.1916C37.7364 80.4596 38.1769 80.6671 38.3968 80.814C39.0078 81.2035 39.2722 81.7023 39.1898 82.3103C39.1268 82.7759 38.8751 83.1518 38.4347 83.438C37.9936 83.7296 37.4553 83.8325 36.8199 83.7464C35.9764 83.6321 35.3874 83.2651 35.053 82.6453C34.9104 82.3805 34.8222 82.0841 34.7886 81.756L35.7745 81.8896C35.7921 82.0481 35.842 82.1944 35.9243 82.3282C36.1173 82.6332 36.4547 82.8184 36.9368 82.8837C37.3092 82.9341 37.6045 82.896 37.8224 82.7694C38.0404 82.6427 38.1657 82.4589 38.1983 82.2179C38.2473 81.8563 37.9209 81.5277 37.2191 81.2318C37.161 81.2072 37.0505 81.1588 36.8873 81.0865C36.7235 81.0196 36.6078 80.9677 36.5403 80.9307C36.4666 80.8984 36.3567 80.8445 36.2108 80.7689C36.0586 80.6981 35.9472 80.6356 35.8764 80.5814C35.8057 80.5272 35.7148 80.4563 35.604 80.3688C35.4924 80.2867 35.4117 80.2033 35.3618 80.1185C35.3057 80.0383 35.2511 79.9473 35.198 79.8453C35.1394 79.7425 35.1046 79.629 35.0935 79.5048C35.0817 79.3861 35.085 79.2582 35.1036 79.1213C35.1704 78.6283 35.4325 78.2371 35.8901 77.9477C36.3414 77.6629 36.9121 77.5673 37.6023 77.6608C38.5225 77.7854 39.1563 78.192 39.5038 78.8805C39.6646 79.1756 39.7534 79.5084 39.7702 79.8788Z" fill="#111A45"/>
<path d="M30.1736 76.8725C30.4979 77.6393 30.488 78.4301 30.1441 79.2449C29.8002 80.0597 29.2404 80.6184 28.4647 80.921C27.6891 81.2235 26.8964 81.2039 26.0867 80.8622C25.1598 80.471 24.5743 79.8398 24.33 78.9687C24.219 78.5919 24.1875 78.1976 24.2353 77.7858L25.1137 78.1566C25.1194 78.399 25.1694 78.6361 25.2635 78.8678C25.4784 79.3965 25.871 79.7812 26.4413 80.0219C27.0168 80.2648 27.5627 80.2792 28.079 80.0652C28.5953 79.8511 28.9781 79.4487 29.2275 78.858C29.4768 78.2673 29.4981 77.7123 29.2913 77.193C29.0845 76.6738 28.6934 76.2927 28.1179 76.0498C27.5323 75.8026 26.9651 75.8032 26.4163 76.0515C26.1751 76.1537 25.9593 76.3026 25.7688 76.4982L24.8903 76.1274C25.1904 75.7861 25.5213 75.5208 25.8832 75.3315C26.703 74.8676 27.5661 74.8269 28.4726 75.2095C29.2823 75.5513 29.8493 76.1056 30.1736 76.8725Z" fill="#111A45"/>
<path d="M22.0893 72.0269L18.5117 76.597L16.5205 75.0382C15.9808 74.6157 15.6611 74.1408 15.5614 73.6135C15.4617 73.0862 15.5772 72.6115 15.9077 72.1893C16.17 71.8541 16.5062 71.6399 16.9161 71.5467C17.3183 71.4544 17.7402 71.5074 18.1817 71.7056L18.368 69.1137L19.2494 69.8037L19.0489 72.2791L20.0608 73.0713L21.3385 71.4392L22.0893 72.0269ZM19.4986 73.7895L18.2582 72.8184C17.6053 72.3073 17.0829 72.3021 16.6911 72.8026C16.2993 73.3031 16.4298 73.8089 17.0827 74.32L18.3231 75.2911L19.4986 73.7895Z" fill="#111A45"/>
<path d="M14.4788 66.1459C14.3636 66.9704 13.9562 67.6441 13.2566 68.1669C12.5571 68.6897 11.7956 68.8897 10.9722 68.7667C10.1488 68.6437 9.47071 68.2258 8.93795 67.513C8.40518 66.8001 8.19642 66.0315 8.31167 65.2069C8.42691 64.3824 8.83431 63.7088 9.53387 63.1859C10.2334 62.6631 10.9949 62.4631 11.8183 62.5861C12.6417 62.7091 13.3198 63.127 13.8525 63.8399C14.3853 64.5527 14.5941 65.3214 14.4788 66.1459ZM11.06 67.8316C11.6137 67.9077 12.1474 67.7538 12.661 67.37C13.1746 66.9861 13.4733 66.5179 13.5571 65.9653C13.641 65.4126 13.4959 64.8862 13.122 64.3859C12.7514 63.89 12.2892 63.604 11.7355 63.5279C11.1784 63.4474 10.6431 63.599 10.1295 63.9829C9.61591 64.3667 9.31885 64.8372 9.23832 65.3942C9.15448 65.9468 9.29787 66.4711 9.66849 66.967C10.0424 67.4673 10.5063 67.7555 11.06 67.8316Z" fill="#111A45"/>
<path d="M9.98169 57.8522L4.62158 60.078L4.25591 59.1975L8.77371 57.3214L7.64489 54.6031L8.48719 54.2533L9.98169 57.8522Z" fill="#111A45"/>
<path d="M7.45976 50.6373L1.74805 51.6676L1.57879 50.7292L6.39295 49.8609L5.87046 46.9642L6.76801 46.8023L7.45976 50.6373Z" fill="#111A45"/>
<path d="M6.80378 37.7584L1.12793 36.546L1.53495 34.6406C1.72315 33.7595 2.15144 33.0907 2.81979 32.6343C3.48815 32.178 4.22234 32.0352 5.02236 32.2061C5.82239 32.377 6.43418 32.8073 6.85775 33.4969C7.28132 34.1865 7.399 34.9718 7.21079 35.8529L6.80378 37.7584ZM6.11103 36.6354L6.31887 35.6624C6.45166 35.0408 6.37738 34.5021 6.09603 34.0463C5.81468 33.5906 5.38751 33.3015 4.81452 33.1791C4.24153 33.0567 3.73354 33.146 3.29054 33.4471C2.84754 33.7481 2.55965 34.2094 2.42686 34.8311L2.21903 35.8041L6.11103 36.6354Z" fill="#111A45"/>
<path d="M8.93665 27.7757C8.14295 28.027 7.35948 27.9496 6.58624 27.5436C5.813 27.1376 5.30448 26.5366 5.06068 25.7406C4.81687 24.9445 4.90183 24.1526 5.31554 23.3646C5.72925 22.5767 6.33296 22.0571 7.12666 21.8059C7.92037 21.5546 8.70384 21.632 9.47708 22.038C10.2503 22.444 10.7588 23.045 11.0026 23.841C11.2464 24.637 11.1615 25.429 10.7478 26.2169C10.3341 27.0048 9.73036 27.5244 8.93665 27.7757ZM5.94235 25.4169C6.11227 25.9493 6.48108 26.3646 7.04877 26.6627C7.61647 26.9608 8.16772 27.0286 8.70252 26.8661C9.23733 26.7037 9.64991 26.346 9.94028 25.7929C10.2281 25.2448 10.287 24.7045 10.1171 24.172C9.94976 23.6347 9.58223 23.2169 9.01454 22.9189C8.44685 22.6208 7.89431 22.5554 7.35694 22.7228C6.82213 22.8852 6.41083 23.2405 6.12303 23.7886C5.83266 24.3416 5.77244 24.8844 5.94235 25.4169Z" fill="#111A45"/>
<path d="M9.99658 16.2388L10.6973 15.5325L14.9415 18.3179L15.0291 18.2296L12.1863 14.0315L13.2081 13.0014L17.4582 15.7809L17.5457 15.6926L14.6971 11.5004L15.3687 10.8234L18.6424 15.7644L17.5621 16.8534L13.4768 14.2022L13.3892 14.2905L16.1023 18.3249L14.9929 19.4433L9.99658 16.2388Z" fill="#111A45"/>
<path d="M22.7415 12.6484L19.96 7.55446L21.1607 6.89881L25.5855 9.72559L25.6583 9.68585L25.2478 9.10704L23.3802 5.68684L24.217 5.22987L26.9986 10.3238L25.7979 10.9794L21.373 8.15266L21.3002 8.19239L21.7108 8.7712L23.5784 12.1914L22.7415 12.6484Z" fill="#111A45"/>
<path d="M33.2267 5.58404C33.0659 5.45975 32.9721 5.29344 32.9454 5.0851C32.9187 4.87676 32.9675 4.69218 33.0918 4.53136C33.2161 4.37054 33.3824 4.27679 33.5907 4.25009C33.7991 4.22339 33.9837 4.27218 34.1445 4.39646C34.3053 4.52074 34.3991 4.68705 34.4258 4.89539C34.4525 5.10373 34.4037 5.28831 34.2794 5.44913C34.1551 5.60995 33.9888 5.70371 33.7805 5.73041C33.5721 5.75711 33.3875 5.70832 33.2267 5.58404Z" fill="#111A45"/>
</svg>
