<svg width="26" height="26" viewBox="0 0 26 26" fill="none" xmlns="http://www.w3.org/2000/svg">
<path d="M13 26C20.1797 26 26 20.1797 26 13C26 5.8203 20.1797 0 13 0C5.8203 0 0 5.8203 0 13C0 20.1797 5.8203 26 13 26Z" fill="#039BE5"/>
<path d="M6.1286 12.7476L18.1009 8.0574C18.6566 7.85343 19.1419 8.19514 18.9618 9.04886L18.9629 9.04781L16.9244 18.8057C16.7733 19.4975 16.3687 19.6657 15.8027 19.3398L12.6984 17.0152L11.201 18.4808C11.0355 18.6491 10.8958 18.791 10.575 18.791L10.7954 15.5811L16.5487 10.3C16.7992 10.0761 16.4929 9.9499 16.1628 10.1728L9.05286 14.7211L5.98787 13.7496C5.32251 13.5351 5.30802 13.0736 6.1286 12.7476Z" fill="white"/>
</svg>
